<svg xmlns="http://www.w3.org/2000/svg" width="84" height="58" viewBox="0 0 84 58">
  <g id="Group_314" data-name="Group 314" transform="translate(-8 -973.362)">
    <path id="Path_358" data-name="Path 358" d="M16,973.362a8.133,8.133,0,0,0-8,8.219v41.531a8.16,8.16,0,0,0,8,8.25H84a8.16,8.16,0,0,0,8-8.25V981.581a8.133,8.133,0,0,0-8-8.219H16Zm0,4H84a3.972,3.972,0,0,1,1.656.375l-33.063,30.594a3.59,3.59,0,0,1-5.094,0L14.375,977.737A3.955,3.955,0,0,1,16,977.362Zm-3.937,3.688,23.469,21.688L12.5,1025.143a4.466,4.466,0,0,1-.5-2.031V981.581a4.6,4.6,0,0,1,.063-.531Zm75.875.031a4.526,4.526,0,0,1,.062.5v41.531a4.491,4.491,0,0,1-.469,2l-22.969-22.406,23.375-21.625Zm-26.281,24.312,22.469,21.969H15.906l22.562-21.937,6.313,5.844a7.768,7.768,0,0,0,10.531,0l6.344-5.875Z" fill="#f1f1f1"/>
  </g>
</svg>
