<svg xmlns="http://www.w3.org/2000/svg" width="497.951" height="497.95" viewBox="0 0 497.951 497.95">
  <path id="linkedin-icon" d="M256,7.025C118.494,7.025,7.025,118.494,7.025,256S118.494,504.975,256,504.975,504.976,393.506,504.976,256,393.5,7.025,256,7.025ZM189.573,376.368H134.908V199.761h54.665ZM161.98,176.633A32.589,32.589,0,1,1,194.3,144.046,32.458,32.458,0,0,1,161.98,176.633ZM394.43,376.368h-54.4v-92.7c0-25.426-9.658-39.619-29.763-39.619-21.881,0-33.312,14.782-33.312,39.619v92.7h-52.43V199.761h52.43v23.786s15.771-29.173,53.219-29.173,64.257,22.866,64.257,70.169V376.368Z" transform="translate(-7.025 -7.025)" fill="#f1f1f1"/>
</svg>
